<svg xmlns="http://www.w3.org/2000/svg" height="371pt" version="1.1" viewBox="1 -6 371.6 371" width="371pt">
<g id="surface1">
<path d="M 297.621094 68.480469 C 297.621094 82.191406 286.503906 93.304688 272.792969 93.304688 C 259.082031 93.304688 247.964844 82.191406 247.964844 68.480469 C 247.964844 54.769531 259.082031 43.652344 272.792969 43.652344 C 286.503906 43.652344 297.621094 54.769531 297.621094 68.480469 Z M 297.621094 68.480469 " style=" stroke:none;fill-rule:nonzero;fill:rgb(50.196078%,46.27451%,30.196078%);fill-opacity:1;" />
<path d="M 6.207031 6.511719 L 6.207031 242.167969 L 195.910156 242.167969 C 202.71875 219.441406 218.535156 200.421875 239.65625 189.609375 C 275.996094 171.089844 320.246094 180.300781 346.070312 211.835938 C 346.070312 211.835938 346.171875 211.835938 346.171875 211.933594 C 353.480469 220.84375 358.886719 231.15625 362.1875 242.167969 L 365.894531 242.167969 L 365.894531 6.511719 Z M 260.378906 31.339844 C 270.089844 31.339844 279 37.046875 282.902344 45.957031 C 284.40625 49.160156 285.105469 52.664062 285.105469 56.167969 C 285.105469 69.882812 273.996094 80.992188 260.28125 80.992188 C 256.777344 80.992188 253.273438 80.191406 250.070312 78.789062 C 237.554688 73.183594 232.050781 58.570312 237.65625 46.054688 C 241.761719 37.046875 250.667969 31.339844 260.378906 31.339844 Z M 260.378906 31.339844 " style=" stroke:none;fill-rule:nonzero;fill:rgb(0%,84.313725%,87.45098%);fill-opacity:1;" />
<path d="M 365.792969 186.304688 L 365.792969 242.167969 L 6.207031 242.167969 L 6.207031 225.847656 L 99.207031 74.6875 L 229.445312 180.101562 L 303.828125 124.339844 Z M 365.792969 186.304688 " style=" stroke:none;fill-rule:nonzero;fill:rgb(100%,92.156863%,60%);fill-opacity:1;" />
<path d="M 285.207031 56.167969 C 285.207031 69.878906 274.089844 80.992188 260.378906 80.992188 C 246.667969 80.992188 235.554688 69.878906 235.554688 56.167969 C 235.554688 42.457031 246.667969 31.339844 260.378906 31.339844 C 274.089844 31.339844 285.207031 42.457031 285.207031 56.167969 Z M 285.207031 56.167969 " style=" stroke:none;fill-rule:nonzero;fill:rgb(100%,92.156863%,60%);fill-opacity:1;" />
<path d="M 362.1875 242.167969 C 358.886719 231.15625 353.378906 220.84375 346.171875 211.933594 C 346.171875 211.933594 346.171875 211.835938 346.070312 211.835938 C 315.539062 174.695312 260.78125 169.386719 223.640625 199.820312 C 186.5 230.253906 181.195312 285.113281 211.628906 322.253906 C 242.058594 359.394531 296.917969 364.699219 334.058594 334.265625 C 361.1875 312.042969 372.199219 275.703125 362.1875 242.167969 Z M 362.1875 242.167969 " style=" stroke:none;fill-rule:nonzero;fill:rgb(100%,31.372549%,13.72549%);fill-opacity:1;" />
<path d="M 285.207031 204.925781 L 272.792969 204.925781 L 272.792969 260.6875 L 217.035156 260.6875 L 217.035156 273.101562 L 272.792969 273.101562 L 272.792969 322.753906 L 285.207031 322.753906 L 285.207031 273.101562 L 340.964844 273.101562 L 340.964844 260.6875 L 285.207031 260.6875 Z M 285.207031 204.925781 " style=" stroke:none;fill-rule:nonzero;fill:rgb(40%,90.588235%,92.54902%);fill-opacity:1;" />
<path d="M 372 242.167969 L 372 6.511719 C 372 3.109375 369.195312 0.304688 365.792969 0.304688 L 6.207031 0.304688 C 2.804688 0.304688 0 3.109375 0 6.511719 L 0 242.167969 C 0 245.570312 2.804688 248.375 6.207031 248.375 L 187.902344 248.375 C 177.589844 298.726562 210.027344 347.878906 260.28125 358.191406 C 310.535156 368.503906 359.785156 336.066406 370.097656 285.8125 C 372.699219 273 372.601562 259.683594 369.796875 246.871094 C 371.199219 245.671875 372 243.96875 372 242.167969 Z M 359.585938 12.71875 L 359.585938 171.390625 L 308.132812 119.933594 C 305.929688 117.734375 302.523438 117.53125 300.023438 119.335938 L 228.746094 172.792969 L 103.109375 69.882812 C 100.507812 67.679688 96.503906 68.078125 94.402344 70.78125 C 94.203125 71.082031 94 71.382812 93.800781 71.683594 L 12.414062 218.242188 L 12.414062 12.71875 Z M 16.71875 235.960938 L 101.007812 84.296875 L 228.746094 188.910156 C 211.425781 200.019531 198.3125 216.640625 191.40625 236.058594 L 16.71875 236.058594 Z M 279 347.578125 C 234.453125 347.578125 198.414062 311.542969 198.414062 266.992188 C 198.414062 222.445312 234.453125 186.40625 279 186.40625 C 323.546875 186.40625 359.585938 222.445312 359.585938 266.992188 C 359.585938 311.441406 323.546875 347.480469 279 347.578125 Z M 279 173.894531 C 265.6875 173.894531 252.570312 176.796875 240.558594 182.300781 L 238.757812 180.800781 L 303.226562 132.449219 L 359.585938 188.808594 L 359.585938 220.644531 C 343.070312 191.8125 312.335938 173.992188 279 173.894531 Z M 279 173.894531 " style=" stroke:none;fill-rule:nonzero;fill:rgb(13.72549%,12.156863%,12.54902%);fill-opacity:1;" />
<path d="M 260.378906 87.101562 C 277.5 87.101562 291.414062 73.183594 291.414062 56.066406 C 291.414062 38.949219 277.5 25.03125 260.378906 25.03125 C 243.261719 25.03125 229.347656 38.949219 229.347656 56.066406 C 229.445312 73.285156 243.261719 87.101562 260.378906 87.101562 Z M 260.378906 37.546875 C 270.691406 37.546875 279 45.855469 279 56.167969 C 279 66.476562 270.691406 74.785156 260.378906 74.785156 C 250.070312 74.785156 241.761719 66.476562 241.761719 56.167969 C 241.761719 45.855469 250.167969 37.546875 260.378906 37.546875 Z M 260.378906 37.546875 " style=" stroke:none;fill-rule:nonzero;fill:rgb(13.72549%,12.156863%,12.54902%);fill-opacity:1;" />
<path d="M 285.207031 204.925781 L 272.792969 204.925781 L 272.792969 260.6875 L 217.035156 260.6875 L 217.035156 273.101562 L 272.792969 273.101562 L 272.792969 322.753906 L 285.207031 322.753906 L 285.207031 273.101562 L 340.964844 273.101562 L 340.964844 260.6875 L 285.207031 260.6875 Z M 285.207031 204.925781 " style=" stroke:none;fill-rule:nonzero;fill:rgb(13.72549%,12.156863%,12.54902%);fill-opacity:1;" />
</g>
</svg>